<svg width="11" height="11" viewBox="0 0 11 11" fill="none" xmlns="http://www.w3.org/2000/svg">
<path d="M7.95035 2.67317C7.9596 2.63153 8.01424 2.60504 8.04524 2.58133C8.17019 2.48578 8.29608 2.39209 8.41872 2.29358C8.46679 2.25496 8.69691 2.08142 8.66055 2.2599C8.64881 2.31755 8.4642 2.65364 8.50749 2.61195C8.68307 2.44287 8.86294 2.2663 9.02331 2.08235C9.20383 1.87529 9.40694 1.70566 9.57587 1.48847C9.63428 1.41337 9.71539 1.3259 9.75342 1.23898C9.77923 1.17998 9.75238 1.10379 9.8024 1.05377C9.86929 0.986883 9.98963 0.921862 10.0718 0.876217C10.1167 0.85124 10.2646 0.733869 10.2646 0.787441C10.2646 0.977619 10.2662 1.17492 10.1881 1.35071C10.1465 1.44434 10.0993 1.59441 10.0993 1.6951C10.0993 1.81776 10.0806 1.93827 10.032 2.05174C9.95416 2.23336 10.2274 1.70657 10.2983 1.52214C10.3058 1.5028 10.3826 1.43453 10.4024 1.43336C10.4919 1.4281 10.4587 1.54024 10.4437 1.6002C10.377 1.86699 10.3123 2.14999 10.2095 2.40684C10.1215 2.62708 9.79664 2.75546 9.63097 2.92113C9.34723 3.20487 9.04391 3.47771 8.6927 3.67726C8.49947 3.78705 8.30379 3.89792 8.10341 3.9941C7.90266 4.09046 8.30314 3.69395 8.33606 3.65889C8.60088 3.37691 8.90108 3.15527 9.20546 2.92113C9.29871 2.8494 9.58951 2.5927 9.72434 2.62266C9.80174 2.63986 9.41162 3.07006 9.39526 3.08797C9.13609 3.37159 8.85377 3.63214 8.58862 3.90992C8.55707 3.94296 8.27909 4.22514 8.46463 4.17318C8.72748 4.09959 8.98846 4.0077 9.23301 3.88543C9.55786 3.723 9.7969 3.51183 10.0106 3.2242C10.0629 3.15371 10.1078 3.08403 10.1544 3.00991C10.2351 2.88187 10.0598 3.12364 10.0412 3.1446C9.7171 3.50919 9.37936 3.84619 9.09372 4.24359C8.99116 4.38629 8.89145 4.5236 8.76158 4.64309C8.61107 4.78155 8.38595 4.85647 8.19831 4.93237C7.908 5.0498 7.60824 5.13143 7.32279 5.26299C7.14946 5.34287 6.89746 5.43729 6.75952 5.57524C6.40676 5.92799 8.30054 4.31344 7.883 4.58645C7.63414 4.74917 7.35677 4.92095 7.16973 5.15584C7.09671 5.24753 7.25032 5.21381 7.29524 5.20482C7.46363 5.17115 7.63148 5.13539 7.80034 5.1038C7.85817 5.09299 8.3169 4.9584 8.18606 5.15278C8.01262 5.41047 7.6522 5.58313 7.39932 5.74513C6.88144 6.0769 6.34596 6.40867 5.80747 6.70178C5.69387 6.76361 5.43588 6.87307 5.70951 6.74463C6.19675 6.51593 6.62257 6.17726 7.0335 5.83238C7.07033 5.80147 7.24932 5.68258 7.24932 5.62115C7.24932 5.58447 7.05822 5.67324 7.05034 5.67626C6.67446 5.82021 6.31725 6.02581 6.0141 6.29463C5.79747 6.48674 5.61544 6.70931 5.48604 6.9681C5.41773 7.10472 5.4521 7.10585 5.59318 7.06913C5.88983 6.99192 6.18566 6.85293 6.46258 6.7232C6.72302 6.60119 7.00967 6.55095 7.27075 6.43392C7.49342 6.3341 7.72448 6.15386 7.86769 5.95789C7.96526 5.82438 8.13352 5.7287 8.22586 5.58748C8.31967 5.444 8.38279 5.27573 8.48912 5.13901C8.56306 5.04395 8.36113 5.23122 8.33453 5.24921C8.09763 5.40947 7.83901 5.53705 7.59065 5.67779C7.29705 5.84416 7.02309 6.00011 6.76258 6.21504C6.51283 6.42108 6.26398 6.63518 5.98808 6.80586C5.65948 7.00915 5.31881 7.19272 4.98705 7.39056C4.74857 7.53277 4.53197 7.7153 4.3044 7.87423C4.24085 7.91862 4.04069 8.05491 4.22174 7.92934C4.62437 7.6501 5.0071 7.37678 5.36206 7.03392C5.51819 6.88311 5.7125 6.70976 5.81665 6.51504C5.84581 6.46054 5.69401 6.54414 5.64216 6.5778C5.16063 6.89037 4.70612 7.24681 4.28603 7.63852C4.03058 7.8767 3.8032 8.18516 3.52072 8.39159C3.49297 8.41186 3.56576 8.33967 3.58806 8.31352C3.74319 8.13166 3.89757 7.9411 4.01664 7.73342C4.04258 7.68817 4.18696 7.46185 4.14215 7.39668C4.12625 7.37356 3.8971 7.64651 3.88654 7.65842C3.84432 7.706 3.36851 8.25785 3.33704 8.23087C3.25967 8.16455 3.56439 7.55531 3.59419 7.46097C3.59909 7.44544 3.67998 7.23331 3.59113 7.32015C3.45467 7.4535 3.3418 7.61919 3.21765 7.76403C3.13026 7.86599 2.90151 8.15221 3.01867 7.85587C3.0667 7.73439 3.11456 7.61019 3.15337 7.48546C3.20552 7.31783 3.15102 7.38486 3.07377 7.49005C3.01597 7.56875 2.76048 8.07628 2.67581 8.07628C2.63386 8.07628 2.70066 7.99608 2.71561 7.95689C2.74825 7.87129 2.78194 7.7863 2.80745 7.69821C2.82675 7.63151 2.82829 7.5963 2.75847 7.64464C2.6085 7.74846 2.50724 7.91324 2.39724 8.05485C2.27256 8.21536 2.17436 8.32561 2.10336 8.51404C2.05562 8.64073 2.01754 8.79174 1.94417 8.90588C1.85121 9.05049 1.69022 9.17852 1.54621 9.27016C1.50818 9.29437 1.47204 9.29911 1.43447 9.32833C1.29721 9.43509 1.51627 9.18003 1.54621 9.12016C1.6095 8.99358 1.71244 8.85055 1.74519 8.71302C1.76779 8.61811 1.76517 8.60531 1.70846 8.70843C1.52244 9.04664 1.37473 9.39752 1.24927 9.75996C1.2176 9.85146 1.18377 9.9274 1.11764 10.0018C1.0885 10.0346 1.07979 10.0758 1.05641 10.1059C1.00993 10.1656 1.15452 9.99052 1.20182 9.93139C1.45558 9.61419 1.75862 9.39045 2.09723 9.17373C2.3129 9.03571 2.50485 8.86258 2.72173 8.72832C2.86792 8.63783 3.0417 8.5359 3.1549 8.40383C3.23141 8.31456 3.18108 8.21971 3.14112 8.12526C3.05388 7.91905 2.98887 7.69922 2.84724 7.52219C2.6832 7.31714 2.66498 6.99466 2.46765 6.8181C2.35117 6.71389 2.31148 7.13601 2.30846 7.17015C2.28462 7.43954 2.27016 7.70897 2.24724 7.97832C2.19887 8.54662 1.95971 9.26993 1.54468 9.68496C1.42923 9.80042 1.41812 9.94879 1.35029 10.0845C1.30486 10.1753 1.30591 10.3416 1.22172 10.4089C1.16025 10.4581 1.02655 10.4559 0.967634 10.4166C0.959945 10.4115 1.00082 10.3562 1.00743 10.3447C1.04283 10.2827 1.05096 10.209 1.06253 10.1396" stroke="#DB6565" stroke-linecap="round"/>
</svg>
