<svg width="4" height="6" viewBox="0 0 4 6" fill="none" xmlns="http://www.w3.org/2000/svg">
<path d="M1.96665 1.85481C1.97754 1.75677 2.066 1.72356 1.96512 1.86858C1.92617 1.92457 1.64374 2.35351 1.83195 2.28032C2.10966 2.17233 2.6385 1.40457 2.41971 1.60685C2.27935 1.73662 2.1801 1.89791 2.07838 2.05685C2.01621 2.154 2.058 2.13086 2.11053 2.05685C2.1858 1.95079 2.53724 1.3338 2.30798 1.24409C2.16043 1.18635 1.9289 1.54114 1.86257 1.62215C1.73568 1.77711 1.55921 1.95883 1.51818 2.16399C1.49601 2.27484 1.68567 2.14171 1.70644 2.12573C1.90542 1.97267 2.06225 1.75827 2.19624 1.54868C2.25093 1.46314 2.37934 1.20852 2.1641 1.34358C1.92164 1.49571 1.74746 1.74176 1.57175 1.96195C1.56188 1.97431 1.39099 2.22297 1.51052 2.14563C1.67211 2.04107 1.76432 1.86578 1.81206 1.68491C1.83923 1.58195 1.92692 1.18649 1.74012 1.15684C1.55484 1.12743 1.33865 1.40439 1.25797 1.53491C1.22082 1.595 1.10643 1.79358 1.25797 1.79358C1.49791 1.79358 1.76296 1.56445 1.92073 1.40786C2.06638 1.26331 2.31813 0.989987 2.27583 0.76041C2.23266 0.526042 1.88829 0.8264 1.82277 0.887452C1.62562 1.07116 1.43031 1.308 1.32991 1.56093C1.24331 1.77909 1.35562 1.86491 1.55644 1.7645C1.7631 1.66117 1.95107 1.47843 2.03706 1.26092C2.13067 1.02413 1.86609 1.28166 1.82583 1.34205C1.66578 1.58213 1.48625 1.90025 1.5442 2.20073C1.59917 2.48579 1.90414 2.54704 2.15185 2.50532C2.50262 2.44625 2.80899 2.24677 3.09319 2.0446C3.31443 1.88722 3.01069 2.17083 2.97074 2.21757C2.82005 2.39385 2.66328 2.58663 2.56665 2.7992C2.49556 2.95561 2.55735 3.03323 2.70747 2.92624C2.94752 2.75518 3.07142 2.46114 3.08707 2.17165C3.10329 1.87151 2.85345 1.91447 2.66155 2.03848C2.26638 2.29387 1.77546 3.15727 2.39828 3.45431C2.65388 3.57621 2.97183 3.44321 3.17278 3.27523C3.29323 3.17454 3.51523 2.77199 3.20186 2.75328C2.80086 2.72934 2.37913 3.19165 2.15798 3.46962C1.89343 3.80212 1.5855 4.3676 1.74318 4.81197C1.87489 5.18315 2.30578 5.0241 2.52073 4.84259C2.92046 4.50504 3.20037 3.94715 3.2585 3.42829C3.29206 3.12869 3.16637 2.86897 2.8391 3.03339C2.41311 3.24741 2.02067 3.72593 1.85491 4.17064C1.76433 4.41367 1.71628 4.90657 2.1044 4.90381C2.46593 4.90125 2.76273 4.46109 2.88043 4.17217C3.00836 3.85817 3.1314 3.34844 2.98604 3.01808C2.79711 2.58869 2.15438 3.32132 2.02175 3.47115C1.69065 3.84517 1.27631 4.3681 1.25185 4.89157C1.23343 5.2856 1.51778 5.37423 1.77991 5.10585C2.14271 4.73442 2.33819 4.18724 2.484 3.70074C2.50564 3.62854 2.82136 2.59731 2.56206 2.69206C2.43571 2.73823 2.32205 2.8821 2.24216 2.98135C2.03464 3.23913 1.87099 3.53837 1.73399 3.8385C1.70942 3.89233 1.39553 4.64105 1.64369 4.6084C1.93495 4.57008 2.18379 4.05138 2.2942 3.83697C2.53283 3.37359 2.81202 2.73671 2.75645 2.19767C2.70639 1.7121 2.16262 2.39932 2.07532 2.51604C1.74254 2.96095 1.46154 3.48581 1.35134 4.03442C1.31954 4.19271 1.2628 4.65134 1.5595 4.42626C1.93263 4.14319 2.07306 3.54902 2.14114 3.11298C2.15524 3.02269 2.2109 2.77631 2.11512 2.69818C1.97729 2.58574 1.67932 2.94735 1.61767 3.01655C1.3499 3.3171 1.2544 3.61912 1.19521 4.0038" stroke="white" stroke-linecap="round"/>
</svg>
