<svg width="15" height="18" viewBox="0 0 15 18" fill="none" xmlns="http://www.w3.org/2000/svg">
<path d="M3.49271 12.1981C3.35433 12.2955 3.24007 12.4181 3.1207 12.5375C3.11861 12.5396 2.86186 12.8392 2.94468 12.6736C2.9951 12.5727 3.04767 12.4672 3.11163 12.3742C3.13753 12.3365 3.01122 12.5564 2.99549 12.5792C2.87116 12.7593 2.74753 12.9473 2.58718 13.0982C2.40981 13.2652 2.6747 12.8389 2.68336 12.826C2.8588 12.5661 3.04843 12.3118 3.24047 12.0638C3.30967 11.9745 3.53234 11.7526 3.51449 11.8642C3.49553 11.9827 3.04604 12.4073 3.02815 12.2344C3.01085 12.0672 3.15582 11.8542 3.2314 11.7154C3.3314 11.5319 3.45399 11.3339 3.63244 11.2164C3.76267 11.1306 3.82753 11.24 3.82298 11.3706C3.81464 11.6106 3.65194 11.8571 3.49089 12.0239C3.40431 12.1136 3.17738 12.3228 3.04267 12.1945C2.82855 11.9906 3.00421 11.5557 3.08985 11.3416C3.2009 11.064 3.34237 10.7979 3.53989 10.5722C3.58548 10.5201 3.77886 10.2912 3.82298 10.4814C3.90392 10.8305 3.33567 11.3313 3.08259 11.4832C2.95903 11.5573 2.8741 11.5133 2.91746 11.367C2.99467 11.1064 3.14943 10.8571 3.27132 10.6157C3.43155 10.2985 3.59207 9.97384 3.82843 9.70477C4.12622 9.36574 4.07257 9.7606 4.00626 9.98604C3.82841 10.5908 3.5146 11.2887 3.07715 11.7554C2.9462 11.895 3.02449 11.5599 3.03178 11.5267C3.09942 11.2186 3.22276 10.9244 3.35116 10.6375C3.61601 10.0458 3.79875 9.43828 4.03348 8.83735C4.056 8.77971 4.39946 8.04933 4.49078 8.28569C4.52211 8.36676 4.39024 8.86015 4.28391 8.78654C4.19131 8.72243 4.26932 8.44761 4.28572 8.3746C4.37457 7.97925 4.51257 7.59426 4.62144 7.20414C4.71311 6.87566 4.92986 5.87826 4.89001 6.21695C4.83812 6.65801 4.78183 7.18694 4.59059 7.59066C4.52773 7.72336 4.61852 7.29806 4.64322 7.15332C4.72241 6.68924 4.7967 6.22437 4.88275 5.76147C4.96569 5.31533 5.0586 4.85761 5.28198 4.45671C5.3161 4.39548 5.55335 4.02385 5.62496 4.26072C5.76083 4.71014 5.49116 5.42226 5.24388 5.79776C5.16043 5.92447 5.10671 5.87342 5.10778 5.73787C5.11082 5.35104 5.20652 4.93473 5.30376 4.56196C5.36152 4.34055 5.43387 4.10305 5.54511 3.90142C5.61315 3.7781 5.5645 4.05922 5.56145 4.072C5.50824 4.29469 5.40115 4.50956 5.30558 4.71621C5.24211 4.85344 5.18498 5.05625 5.08237 5.17169C4.97627 5.29105 5.21406 4.8807 5.28198 4.73617C5.44866 4.38153 5.63115 4.03111 5.81913 3.68729C5.94481 3.45742 6.13305 3.23456 6.22199 2.98682C6.28494 2.81145 5.84649 3.26222 5.82457 3.28624C5.6134 3.51766 5.40906 3.75572 5.18036 3.97038C5.15706 3.99224 4.94068 4.18117 4.95897 4.14458C5.25387 3.55479 5.75689 3.01277 6.21836 2.5513C6.36149 2.40817 6.5452 2.1683 6.7301 2.07585C6.86871 2.00654 6.53851 2.32022 6.43068 2.43153C6.29249 2.57417 6.15231 2.71737 5.99697 2.84164C5.88937 2.92772 6.14318 2.62484 6.15303 2.61299C6.34699 2.37987 6.51452 2.13566 6.6684 1.87442C6.66871 1.87389 6.87511 1.57949 6.76276 1.66936C6.51318 1.86903 5.76211 2.46323 5.99697 2.24643C6.38111 1.89184 6.82943 1.58957 7.25999 1.29554C7.26835 1.28982 7.63018 1.05506 7.63018 1.08322C7.63018 1.17239 7.39444 1.29716 7.33257 1.33364C6.94333 1.5632 7.45183 1.12332 7.53037 1.056C7.7119 0.900401 7.89109 0.742318 8.07659 0.591441C8.26405 0.438971 7.8641 0.672455 7.85339 0.678545C7.30762 0.988637 6.73685 1.39764 6.11674 1.54233C5.64883 1.65151 6.38657 1.16243 6.49782 1.10681C6.7209 0.99527 6.44284 1.2732 6.41797 1.29735C6.19595 1.51303 5.94808 1.69876 5.72114 1.9089C5.57369 2.04543 5.40582 2.18775 5.28743 2.35168C5.27707 2.36603 5.47249 2.18799 5.507 2.1557C5.61665 2.05309 5.87308 1.69919 5.83183 1.84357C5.79398 1.97605 5.62899 2.12521 5.55056 2.23554C5.38022 2.47514 5.2234 2.72151 5.08237 2.97956C5.01106 3.11005 4.80742 3.38091 4.83739 3.54574C4.83977 3.55883 5.01747 3.29324 5.02793 3.27354C5.10343 3.13129 5.24569 2.91491 5.24569 2.74728C5.24569 2.54528 5.00552 3.07319 4.90453 3.24813C4.74374 3.52666 4.5921 3.80966 4.47627 4.11011C4.42642 4.2394 4.31804 4.43883 4.32383 4.58374C4.32861 4.70305 4.45889 4.38547 4.50893 4.27706C4.6671 3.93435 4.78286 3.56796 4.88275 3.20458C4.88714 3.18862 5.03053 2.54882 4.94808 2.59122C4.82134 2.6564 4.75411 2.91266 4.70492 3.03037C4.65165 3.15784 4.57681 3.30837 4.55974 3.44775C4.52054 3.76788 4.94726 2.92565 5.07874 2.63114C5.10451 2.57341 5.16619 2.37005 5.04063 2.50956C4.9048 2.66048 4.79342 2.84694 4.67588 3.01222C4.42012 3.37188 4.23974 3.73961 4.14599 4.16818C4.04962 4.60875 3.93193 5.04821 3.84113 5.48926C3.76534 5.85736 4.15457 4.80601 4.30206 4.46034C4.33214 4.38984 4.41933 4.14676 4.40005 4.36961C4.37497 4.65947 4.30981 4.94538 4.26032 5.23158C4.19856 5.58869 4.13793 5.94771 4.09518 6.30768C4.08779 6.3699 4.0141 6.75104 4.11696 6.49641C4.1779 6.34555 4.23127 6.1791 4.27665 6.02459C4.32934 5.84524 4.49878 5.31744 4.40368 5.47837C4.22741 5.77668 4.16344 6.20616 4.06252 6.53633C4.01503 6.6917 3.92097 7.16517 3.92097 7.00271C3.92097 6.82651 3.96426 6.63726 3.98993 6.46375C3.99289 6.44375 4.04065 6.04844 4.02804 6.05544C3.94086 6.10387 3.88952 6.35155 3.85927 6.43471C3.81228 6.56396 3.75491 6.69567 3.72499 6.83031C3.72007 6.85246 3.79224 6.56823 3.80665 6.52C3.83294 6.43199 4.01614 6.02762 3.9609 5.94475C3.94396 5.91934 3.92387 5.99372 3.91009 6.02096C3.85821 6.12348 3.81439 6.2307 3.77036 6.33672C3.69368 6.52131 3.62056 6.70849 3.57256 6.9029C3.55549 6.972 3.51238 7.05018 3.5907 6.97186C3.81458 6.74798 3.58638 7.27714 3.55804 7.36383C3.49557 7.55492 3.43081 7.7457 3.38201 7.9409C3.33962 8.11046 3.3834 7.97226 3.41649 7.8919C3.48895 7.71593 3.57118 7.54474 3.64877 7.37109C3.70133 7.25345 3.71397 7.18169 3.63425 7.3475C3.41272 7.80829 3.19481 8.29622 3.05537 8.78835C3.03138 8.87303 2.91887 9.10637 2.97734 9.04059C3.04227 8.96754 3.06748 8.82622 3.10074 8.73754C3.1118 8.70804 3.21378 8.45505 3.15881 8.62685C3.07444 8.8905 3.00847 9.15782 2.93742 9.4253C2.87155 9.67327 2.70569 10.4197 2.80676 10.1838C2.87525 10.024 2.94516 9.76033 2.89024 10.1113C2.87475 10.2102 2.60814 11.0439 2.72328 11.0984C2.78385 11.1271 2.93158 10.8175 2.94468 10.7936C3.18131 10.3617 3.40841 9.93025 3.7014 9.53237C3.75446 9.46031 4.06561 8.96787 4.19681 9.00067C4.29333 9.0248 4.043 9.55404 4.02804 9.58863C3.91481 9.8503 3.78545 10.1044 3.67055 10.3653C3.61033 10.502 3.67698 10.444 3.75039 10.3671C3.94229 10.1663 4.10131 9.93759 4.27665 9.72291C4.30485 9.68839 4.57332 9.35095 4.52708 9.58681C4.47308 9.86218 4.32029 10.1159 4.19318 10.3617C4.00613 10.7234 3.81771 11.0817 3.59796 11.4251C3.49378 11.5879 3.44615 11.78 3.24954 11.7481C3.01859 11.7106 2.76469 12.1325 2.6507 12.2889C2.5621 12.4104 2.61835 12.3108 2.64707 12.2326C2.71352 12.0517 2.77468 11.8653 2.82491 11.6791C2.90144 11.3955 2.57561 12.2117 2.43294 12.4685C2.41975 12.4923 2.22437 12.8023 2.33313 12.6573C2.41579 12.547 2.3394 13.0287 2.33494 13.0637C2.32242 13.1622 2.2081 13.6358 2.37124 13.3813C2.47899 13.2132 2.5821 13.0407 2.70151 12.8805C2.71559 12.8616 2.94487 12.5675 2.96282 12.6373C3.0332 12.911 2.71538 13.1887 2.72328 13.4575C2.72533 13.5269 2.92988 13.2492 2.93016 13.2488C3.1161 12.9996 3.31181 12.7578 3.49997 12.5103C3.52511 12.4772 3.86034 11.9927 3.91916 12.0384C3.97832 12.0845 3.67195 12.5214 3.64877 12.5574C3.4949 12.7965 3.33619 13.0321 3.18421 13.2724C3.10504 13.3976 2.94105 13.7926 2.94105 13.6444C2.94105 13.5776 3.08653 13.3698 2.96464 13.6136C2.75928 14.0243 2.54705 14.4313 2.33494 14.8385C2.12768 15.2364 2.37353 14.7185 2.43112 14.6008C2.46865 14.5241 2.56911 14.2885 2.53093 14.3649C2.43872 14.5493 2.36926 14.7467 2.28413 14.9347C2.25197 15.0057 1.99033 15.6307 2.12081 15.2867C2.14959 15.2109 2.37181 14.5809 2.2188 14.8911C2.13665 15.0577 2.05814 15.2264 1.97745 15.3938C1.93669 15.4783 1.90195 15.6362 1.83409 15.7041C1.75838 15.7798 1.91327 15.505 1.9593 15.4083C2.05546 15.2064 2.14319 14.9965 2.22788 14.7895C2.25544 14.7221 1.99242 15.0115 1.9466 15.049C1.90471 15.0833 1.96353 14.892 1.96475 14.8875C1.99956 14.758 2.02595 14.6163 2.08633 14.4955C2.3178 14.0326 1.81376 15.4958 1.63085 15.9799C1.5518 16.1892 1.22444 16.7722 1.35865 16.5933C1.50923 16.3925 1.61743 16.1752 1.74699 15.9618C1.75017 15.9565 1.43796 16.2041 1.37135 16.2648C1.17889 16.4403 0.87957 16.6602 0.87957 16.9345C0.87957 16.9888 0.860773 17.0947 0.930381 17.0125C1.10155 16.8102 1.20978 16.5746 1.31146 16.332C1.41015 16.0965 1.51689 15.8703 1.63085 15.6424C1.69651 15.5111 1.58601 15.6013 1.51834 15.6351C1.49126 15.6487 1.28455 15.766 1.33687 15.686C1.40335 15.5843 1.519 15.394 1.58185 15.5825C1.64162 15.7618 1.64202 15.884 1.83046 15.7368C1.94451 15.6477 2.04412 15.5413 2.14622 15.4392C2.15406 15.4313 2.2805 15.3057 2.2805 15.3248C2.2805 15.5178 2.01831 15.8045 1.90849 15.9509C1.86126 16.0139 1.63595 16.3163 1.84135 16.1033C2.25855 15.6707 2.55327 15.1016 2.90838 14.6189C3.27012 14.1272 4.57743 12.837 4.14962 13.2724C3.66402 13.7667 2.1839 15.2263 2.67973 14.7423C3.46814 13.9727 4.33489 13.3173 5.27836 12.748C5.58183 12.5649 5.89217 12.3718 6.22199 12.2381C6.39399 12.1683 6.14047 12.3108 6.11674 12.327C5.45022 12.7814 4.74487 13.1809 4.11514 13.688C4.02451 13.761 3.75924 13.9198 3.87379 13.9402C4.00719 13.9641 4.32562 13.6782 4.42001 13.6208C4.94674 13.3006 5.49132 13.0112 6.04415 12.7389C6.61823 12.4561 7.20489 12.1165 7.81165 11.9078C8.42805 11.6957 6.75803 12.6763 6.21473 13.0365C5.48012 13.5235 4.76529 14.065 4.14055 14.6897C3.80725 15.023 4.83817 14.0522 5.2221 13.7787C5.59061 13.5163 5.97757 13.268 6.37079 13.0438C6.69032 12.8615 6.15324 13.2083 6.10222 13.2398C5.28052 13.7473 4.49709 14.3321 3.71773 14.902C3.49216 15.067 2.8642 15.623 3.06807 15.4319C3.12983 15.374 3.22501 15.3263 3.30398 15.3012C3.75591 15.1578 4.11555 14.8419 4.52889 14.6244C4.60311 14.5853 4.68356 14.5631 4.57426 14.6443C4.34517 14.8146 4.10165 14.9574 3.84476 15.0817C3.43701 15.279 3.06212 15.4659 2.69788 15.7368C2.66024 15.7647 2.40718 15.9935 2.59989 15.8856C3.00956 15.6562 3.39918 15.3931 3.79758 15.1452C4.35433 14.7988 2.67854 15.8308 2.14259 16.2086C2.07193 16.2584 1.92691 16.3884 1.99015 16.2267C2.12727 15.8763 2.22177 15.5374 2.26961 15.1633C2.31815 14.7838 2.44382 14.3722 2.44382 13.9892C2.44382 13.7919 2.2352 14.342 2.22425 14.5391C2.20895 14.8144 2.98762 14.1509 3.03178 14.1163C3.75938 13.5451 4.49283 12.9394 5.26021 12.4232C5.7234 12.1116 5.1976 12.8423 5.11866 12.9422C4.88622 13.2361 4.63436 13.5169 4.38735 13.7987C4.34928 13.8421 4.05825 14.0936 4.0843 14.1689C4.12253 14.2793 5.26135 13.4723 5.3328 13.4249C5.60892 13.2416 5.89621 13.06 6.19477 12.9149C6.2072 12.9089 6.21924 12.9009 6.23288 12.8986C6.26134 12.8939 6.18481 12.9306 6.16029 12.9458C6.02947 13.027 5.90165 13.1123 5.77376 13.198C5.36832 13.4699 4.95993 13.7377 4.55067 14.0037C4.17996 14.2447 5.29395 13.5224 5.64129 13.2488C6.30585 12.7254 6.83925 12.1251 7.30717 11.4233C7.38557 11.3057 7.48684 11.1742 7.52856 11.0367C7.56103 10.9298 7.456 10.8549 7.42694 10.7609C7.34525 10.4966 7.69772 10.1351 7.85157 9.96971C7.97805 9.83375 8.13899 9.63282 8.31976 9.56503C8.50062 9.49721 8.31133 9.88083 8.29798 9.90801C8.17928 10.1496 8.02713 10.3719 7.89331 10.6048C7.8034 10.7614 7.85616 10.7806 8.01489 10.7137C8.29467 10.5958 8.5575 10.4248 8.81698 10.2691C8.98985 10.1654 9.15718 10.0536 9.32872 9.94793C9.37046 9.92222 9.48577 9.8615 9.47027 9.90801C9.40142 10.1145 9.04433 10.3018 8.88594 10.4161C8.60794 10.6167 8.31764 10.8036 8.04756 11.015C7.89327 11.1357 7.97879 11.1431 8.12377 11.0984C8.49894 10.9828 8.8615 10.8283 9.2271 10.6865C9.26342 10.6724 9.80311 10.5143 9.76425 10.5613C9.57037 10.7958 9.15181 10.9356 8.8932 11.0748C8.53274 11.2689 8.15166 11.4555 7.8298 11.7118C7.57644 11.9135 8.18972 11.5258 8.2254 11.5049C8.61071 11.2792 8.98797 11.0353 9.37953 10.8208C9.39693 10.8113 9.96945 10.5513 9.94934 10.6194C9.92345 10.707 9.48596 11.2385 9.49204 11.2364C9.60257 11.1969 9.71242 11.1187 9.8332 11.1148C9.98451 11.1099 9.63685 11.4679 9.61907 11.4868C9.39174 11.7286 9.14705 11.9592 8.89138 12.1709C8.87285 12.1863 8.49584 12.4591 8.66999 12.3996C9.1972 12.2192 9.64121 11.8196 10.1363 11.5721C10.3078 11.4863 10.0597 11.6464 10.0328 11.6682C9.86099 11.8075 9.69387 11.9522 9.52471 12.0947C9.47592 12.1358 9.31336 12.3143 9.23799 12.3143C9.17329 12.3143 9.33094 12.2229 9.36683 12.1691C9.43622 12.065 9.23422 12.1726 9.21984 12.18C8.9933 12.2968 8.76071 12.3986 8.52663 12.4994C8.20453 12.6381 7.87445 12.8025 7.54308 12.9167C7.39303 12.9685 7.24901 13.0059 7.11118 13.0873C7.06485 13.1147 6.80893 13.2425 6.98778 13.1781C7.04593 13.1571 7.18271 13.0487 7.15836 13.1055C7.10452 13.2311 6.94924 13.3498 6.8535 13.4412C6.6594 13.6265 6.41869 13.8836 6.17481 14.0056C6.11501 14.0355 5.95437 14.021 5.87357 14.0473C5.62047 14.1296 5.4011 14.2909 5.20758 14.4701C5.0624 14.6045 4.89343 14.6888 4.73395 14.804C4.65337 14.8622 4.54283 14.9379 4.44723 14.9673C4.37251 14.9903 4.45142 14.899 4.46175 14.8857C4.60463 14.702 4.7005 14.4867 4.79202 14.2741C5.14817 13.4467 5.50656 12.6294 6.0877 11.9296C6.21965 11.7707 6.35833 11.5937 6.52504 11.4686C6.66636 11.3626 6.53026 11.6 6.50871 11.6501C6.50195 11.6658 6.32965 12.0384 6.35628 12.0384C6.50281 12.0384 6.7619 11.7788 6.86439 11.6991C7.54371 11.1707 8.16988 10.5753 8.82424 10.0169C9.04293 9.83028 9.22426 9.61313 9.4376 9.42349C9.69611 9.19371 9.50286 9.8221 9.47753 9.88986C9.45812 9.94177 9.32845 10.1554 9.36502 10.2129C9.41171 10.2863 9.64074 10.0294 9.65899 10.0096C9.81043 9.84558 9.93268 9.65738 10.0873 9.49608C10.088 9.49531 10.3104 9.26903 10.2724 9.38538C10.1417 9.78506 9.73884 10.0414 9.53197 10.3943C9.29246 10.8029 10.198 9.71421 10.5827 9.43801C10.8036 9.27941 10.4278 9.98787 10.3939 10.0641C10.3382 10.1895 10.435 10.157 10.5119 10.1113C10.7333 9.97942 10.9238 9.80235 11.1361 9.65758C11.2422 9.58529 11.3329 9.55791 11.2378 9.71202C11.1165 9.90862 10.9675 10.0938 10.824 10.2746C10.8166 10.2839 10.6383 10.4832 10.6897 10.4905C10.8287 10.5104 11.0856 10.2724 11.1978 10.2092C11.2099 10.2025 11.5499 10.0058 11.5499 10.0895C11.5499 10.227 11.2128 10.4615 11.1307 10.5341C10.9302 10.7112 10.7173 10.878 10.5446 11.0839C10.4343 11.2154 10.7083 11.0356 10.7188 11.0277C10.9123 10.8808 11.1023 10.7149 11.2741 10.5431C11.3029 10.5144 11.5504 10.2157 11.4973 10.2365C11.3298 10.302 11.1618 10.4639 11.0236 10.5758C10.887 10.6865 10.8779 10.7124 11.0127 10.5758C11.4101 10.1734 11.6452 9.68072 11.96 9.21843C11.9776 9.19264 12.1243 8.94225 12.1233 8.9426C12.0107 8.98357 11.886 9.14366 11.8039 9.22569C11.7069 9.32275 11.624 9.43809 11.519 9.52693C11.4868 9.55421 11.6377 9.34271 11.6515 9.32368C11.7506 9.18763 11.8192 9.03448 11.9146 8.89723C11.9637 8.82669 11.7987 9.19367 11.7749 9.23658C11.7218 9.33221 11.5084 9.54703 11.6152 9.5233C11.6953 9.50551 11.7806 9.2606 11.8094 9.2021C11.9189 8.97957 12.0299 8.75758 12.1415 8.53611C12.1616 8.49609 12.2661 8.22762 12.3284 8.22762C12.5695 8.22762 12.1914 9.06927 12.1542 9.13496C12.1423 9.15593 12 9.38449 12.1124 9.25472C12.2643 9.07945 12.4091 8.9 12.5734 8.73573C12.5786 8.73049 12.7934 8.51703 12.7421 8.61959C12.6617 8.78055 12.5526 8.93314 12.45 9.08051C12.4469 9.08491 12.2933 9.29696 12.3375 9.19666C12.4178 9.01415 12.5408 8.84835 12.6314 8.6704C12.832 8.2767 13.0917 7.89258 13.2702 7.49086C13.3279 7.36097 12.8866 7.90327 12.9563 7.77939C13.0578 7.59881 13.3827 7.07177 13.3011 7.26221C13.2197 7.45203 12.8862 7.97069 12.9545 7.77576C13.0011 7.64255 13.0657 7.52211 13.1359 7.40012C13.196 7.29568 13.4045 7.00722 13.3119 7.08437C13.203 7.17517 13.1117 7.28782 13.0053 7.38197C12.9429 7.43711 12.7489 7.58395 12.8565 7.38923C12.9825 7.16122 13.5229 6.59011 13.3755 6.80491C13.1118 7.18904 12.7299 7.47118 12.4318 7.82476C12.1923 8.10884 12.9815 7.32452 13.2521 7.06985C13.2999 7.02482 13.8962 6.40144 13.7965 6.75772C13.7922 6.7731 13.7252 6.90821 13.7384 6.91742C13.7654 6.93635 13.9043 6.79593 13.9253 6.7795C14.0192 6.70604 13.9801 6.75855 13.9308 6.82305C13.8284 6.95686 13.7103 7.07618 13.5914 7.19506C13.4375 7.349 13.2885 7.48687 13.1867 7.69047C13.1255 7.81284 13.4333 7.43306 13.2012 7.66506C13.1464 7.71991 13.2046 7.65354 13.2194 7.66506C13.2635 7.69936 13.2555 7.84392 13.2793 7.8175C13.3126 7.78043 13.4966 7.5257 13.4045 7.65962C13.3536 7.73364 13.205 7.88268 13.3301 7.70136C13.4053 7.59237 13.4871 7.48143 13.5787 7.3856C13.6106 7.35226 13.6445 7.30531 13.6005 7.36927C13.44 7.60268 13.2329 7.87179 13.0053 8.04252C12.7496 8.23429 13.0536 8.0091 13.1359 7.94453C13.2524 7.85309 13.371 7.76295 13.4807 7.66325C13.5227 7.62507 13.5669 7.59119 13.5061 7.66506C13.2782 7.94227 12.9708 8.1096 12.7712 8.30928C12.6166 8.46383 12.9332 8.1954 12.9672 8.16047C13.2692 7.84952 13.4773 7.42728 13.6967 7.05533C13.8003 6.87965 13.791 6.75758 13.6676 6.59622C13.5021 6.37979 13.5626 6.18254 13.7311 5.98467C13.8155 5.88568 13.9046 5.79143 13.987 5.69069C13.9872 5.69043 13.8456 5.83424 13.8146 5.86853C13.7156 5.97818 13.6322 6.10535 13.5279 6.20969C13.4859 6.25169 13.5564 6.04414 13.5606 6.02822C13.6118 5.83075 13.6684 5.63491 13.7166 5.43664C13.7198 5.42371 13.8119 5.06145 13.8219 5.06644C13.8561 5.08356 13.8489 5.20043 13.8654 5.23339C13.9058 5.31405 13.9755 5.04311 13.9779 5.03378C13.9886 4.99266 14.0288 4.61527 14.0215 4.62003C13.9664 4.65603 13.9131 4.83625 13.8182 4.7888C13.6409 4.70014 13.8035 4.21772 13.8455 4.08833C13.8999 3.9206 13.7856 4.00527 13.7856 3.84698C13.7856 3.78541 13.9156 3.39324 13.8473 3.50945C13.7757 3.63119 13.5259 3.82298 13.39 3.69091C13.2307 3.53617 13.4154 3.43732 13.5606 3.41871C13.6732 3.40427 13.9714 3.40995 14.036 3.2808C14.0489 3.25501 14.022 3.21006 14.0106 3.27535C13.9806 3.44796 13.9779 3.62335 13.9779 3.79798C13.9779 3.85256 13.9697 4.21048 13.9961 4.1954C14.095 4.13885 14.105 4.32657 14.105 4.3932C14.105 4.64031 14.0106 4.87461 14.0106 5.11725C14.0106 5.37904 13.9722 5.63556 13.9435 5.89394C13.9236 6.0725 13.8473 6.23471 13.8473 6.41656" stroke="#DB6565" stroke-linecap="round"/>
</svg>
