<svg width="144" height="45" viewBox="0 0 144 45" fill="none" xmlns="http://www.w3.org/2000/svg">
<path d="M8.2094 31.3263C8.03031 31.8652 7.17247 33.4539 7.34265 33.9347C7.89642 35.499 13.4011 36.2759 14.4723 36.4969C20.9282 37.8288 27.6652 37.7802 34.223 37.5892C39.8543 37.4251 45.4466 36.9002 51.0161 36.0573C54.4983 35.5303 58.3172 35.0604 61.2986 33.0056C66.7151 29.2723 60.8976 24.6739 57.7052 21.8351C55.7728 20.1167 50.4384 16.4462 52.7139 13.2252C54.2455 11.0572 58.0239 10.0652 60.3398 9.45167C69.5911 7.00084 79.4508 6.80702 88.9624 6.79816C101.429 6.78655 113.733 9.0303 126.022 10.9067C128.014 11.2109 135.995 11.2866 137.005 13.3012" stroke="#DB6565" stroke-width="13" stroke-linecap="round"/>
</svg>
