<svg width="3" height="6" viewBox="0 0 3 6" fill="none" xmlns="http://www.w3.org/2000/svg">
<path d="M2.00233 3.19664C1.84557 3.24367 1.77871 3.6769 1.74519 3.8043C1.69949 3.97796 1.71453 4.09899 1.72529 4.27114C1.7388 4.48735 1.80931 4.49568 1.95335 4.32012C1.99456 4.26989 2.10699 4.0834 2.1906 4.1043C2.27504 4.12541 2.24686 4.34992 2.23805 4.40277C2.22606 4.47473 1.97784 4.9161 1.97784 4.7089C1.97784 4.66293 2.01598 4.55014 1.92886 4.59869C1.79554 4.673 1.6843 4.79306 1.56457 4.88645C1.35762 5.04788 1.30581 5.02262 1.27988 4.77625C1.2741 4.72138 1.27432 4.53508 1.20029 4.51451C1.12423 4.49338 1.02472 4.6604 0.989059 4.70584C0.947101 4.7593 0.776977 5.05031 0.764057 4.84359C0.75089 4.63292 0.790078 4.42713 0.790078 4.21757C0.790078 4.07351 0.772898 3.91762 0.7962 3.77522C0.820123 3.62902 0.8871 3.48309 0.927834 3.34052C1.01646 3.03033 1.14369 2.76213 1.18804 2.43898C1.23549 2.09329 1.28406 1.69624 1.2309 1.35071" stroke="#DB6565" stroke-linecap="round"/>
</svg>
