<svg width="6" height="6" viewBox="0 0 6 6" fill="none" xmlns="http://www.w3.org/2000/svg">
<path d="M1.93909 2.98439C1.94821 2.89325 2.05713 2.794 1.8993 2.95378C1.83052 3.0234 1.64336 3.24951 1.71256 3.18031C1.86967 3.0232 1.96295 2.77774 2.08756 2.59561C2.14685 2.50896 2.3355 2.27275 2.31256 2.3752C2.27154 2.55844 2.16885 2.75225 2.02787 2.87725C1.88224 3.00636 1.71942 2.97126 1.76766 2.74255C1.83224 2.4364 2.00029 2.13155 2.16562 1.87009C2.22635 1.77407 2.37675 1.51237 2.53604 1.52417C2.79894 1.54365 2.62733 2.10309 2.57889 2.21295C2.42512 2.56175 2.11957 2.90814 1.7646 3.05939C1.57242 3.14128 1.21517 3.18096 1.22276 2.87418C1.23419 2.41238 1.59389 1.85339 1.85644 1.49662C1.93767 1.38624 2.31926 0.890645 2.48706 1.16601C2.67027 1.46666 2.39423 1.95505 2.17787 2.15938C1.99403 2.33301 1.68886 2.49973 1.42786 2.40887C1.02935 2.27015 1.22412 1.62708 1.3299 1.35887C1.46162 1.0249 1.7727 0.632852 2.14879 0.564472C2.53898 0.493528 2.54931 0.941291 2.42277 1.18744C2.21722 1.58728 1.7676 1.89099 1.34368 2.01091C1.03631 2.09786 0.578674 2.04391 0.680918 1.61448C0.857441 0.873083 2.39931 0.195453 2.75645 1.12927C2.95699 1.65366 2.763 2.26871 2.50695 2.7349C2.44401 2.84951 1.84412 3.81886 1.61613 3.53541C1.45264 3.33215 1.7821 2.89837 1.90542 2.75786C2.0996 2.53661 2.44062 2.4421 2.51461 2.81908C2.58383 3.17177 2.42243 3.50592 2.15338 3.72674C1.91725 3.92055 1.46863 4.06196 1.63756 3.5798C1.79266 3.13713 2.13186 2.68809 2.50542 2.40581C2.84983 2.14557 3.33645 2.18854 3.32584 2.72112C3.31547 3.24113 2.84555 3.77127 2.46104 4.0696C2.24665 4.23593 1.42454 4.67862 1.28245 4.18134C1.16006 3.75297 1.59413 3.17601 1.85644 2.88643C2.09507 2.62299 2.51114 2.2906 2.89879 2.38438C3.30027 2.48152 3.43442 2.93505 3.3289 3.29358C3.15883 3.87145 2.61302 4.43181 2.0646 4.66195C1.7794 4.78164 1.38203 4.76605 1.45695 4.35889C1.53873 3.91442 1.96399 3.34258 2.41052 3.21398C2.81652 3.09706 2.92775 3.5672 2.90339 3.87215C2.86012 4.41372 2.48926 4.96973 2.00032 5.20992C1.7313 5.34207 1.36174 5.35026 1.28552 4.99563C1.21898 4.68611 1.38681 4.34411 1.63909 4.16603C1.87175 4.0018 2.24879 3.90262 2.52073 4.02215C2.86343 4.17279 2.92311 4.56072 2.71512 4.8441C2.5453 5.07548 2.18542 5.39271 1.86562 5.31094C1.42131 5.19734 1.71415 4.35984 1.8044 4.11399C1.9274 3.77892 2.12365 3.29452 2.48399 3.14511C2.88987 2.97682 2.72905 3.5768 2.61869 3.73746C2.27084 4.24381 1.09686 4.61809 0.951839 3.75429C0.887565 3.37145 1.01062 2.98127 1.31154 2.73031C1.72591 2.38472 2.43853 2.06979 2.9891 2.13642C4.16183 2.27835 2.64759 4.01391 2.15644 4.21195C1.91743 4.30833 2.36147 3.63329 2.36767 3.62419C2.85017 2.91545 3.44537 2.17811 4.1585 1.68948C4.5008 1.45494 4.86976 1.43678 4.90544 1.92979C4.94554 2.48383 4.67188 3.09298 4.34064 3.52164C4.14271 3.77779 3.79978 4.13505 3.42992 4.04358C3.04653 3.94876 3.08381 3.3912 3.20339 3.11908C3.30458 2.88882 3.48802 2.71016 3.68707 2.95378C3.98608 3.31973 3.97471 3.87568 3.79727 4.29154C3.671 4.5875 3.40885 4.87967 3.07175 4.92522C2.79211 4.96301 2.6965 4.70167 2.60032 4.49971" stroke="#DB6565" stroke-linecap="round"/>
</svg>
