<svg width="5" height="11" viewBox="0 0 5 11" fill="none" xmlns="http://www.w3.org/2000/svg">
<path d="M2.59721 3.32317C2.59016 3.2738 2.41977 3.54177 2.4166 3.54358C2.37833 3.56545 2.37369 3.67365 2.33701 3.64919C2.31173 3.63234 2.40338 3.33722 2.41048 3.30174C2.47382 2.98502 2.65133 2.75739 2.80385 2.48286C2.83363 2.42925 2.82786 2.3629 2.85742 2.30378C2.89718 2.22425 2.95227 2.14169 2.97681 2.05581C3.027 1.88015 3.09529 1.68912 3.1911 1.53234C3.29417 1.36368 3.45197 1.2344 3.56151 1.07009C3.60755 1.00103 3.66806 0.941077 3.71304 0.871111C3.7472 0.817974 3.88794 0.718048 3.82478 0.718048C3.71787 0.718048 3.58408 0.894815 3.50028 0.947642C3.38959 1.01742 3.32567 1.08742 3.24467 1.18642C3.14725 1.30549 3.05638 1.44701 2.95538 1.55989C2.85024 1.6774 2.76147 1.82678 2.67987 1.95938C2.54723 2.17492 2.43279 2.3588 2.36303 2.60684C2.27716 2.91214 2.18639 3.21679 2.10129 3.52215C2.0208 3.81097 1.91206 4.10249 1.85333 4.39614C1.80463 4.63962 1.71134 4.87875 1.63292 5.114C1.58656 5.25307 1.50117 5.40229 1.64823 5.19053C1.7271 5.07695 1.77565 4.94872 1.83802 4.82625C1.93602 4.63381 2.06387 4.46009 2.18395 4.28134C2.26828 4.1558 2.35593 4.03278 2.44109 3.90787C2.455 3.88747 2.49464 3.82925 2.45334 3.88644C2.24106 4.18036 2.04214 4.48361 1.85486 4.7941C1.70772 5.03805 1.50262 5.28978 1.42782 5.5686C1.3697 5.78522 1.29212 5.99645 1.2472 6.21605C1.21167 6.38979 1.18387 6.56749 1.14312 6.73953C1.12305 6.82429 1.06577 7.03861 1.18292 6.85585C1.38951 6.53357 1.53305 6.17743 1.74313 5.85789C1.84752 5.69908 2.1492 5.21573 2.0569 5.38186C1.92121 5.62611 1.79642 5.88013 1.6819 6.13493C1.43335 6.68796 1.26938 7.22564 1.11557 7.8079C1.08774 7.91327 1.04226 8.02523 1.03139 8.13393C1.02502 8.19756 1.14215 7.97841 1.14312 7.97627C1.39455 7.41983 1.40757 6.79009 1.70027 6.24973C1.9078 5.8666 2.15639 5.50563 2.15639 5.06502C2.15639 4.84944 2.12909 5.09865 2.11507 5.18747C2.03723 5.68045 1.89241 6.14216 1.7217 6.61095C1.49492 7.23369 1.30245 7.8625 1.12322 8.49975C1.08725 8.62766 1.0223 8.7825 0.959446 8.89924C0.906219 8.99809 1.15837 8.8319 1.17679 8.81505C1.30495 8.69788 1.53749 8.22259 1.43394 8.36199C1.36284 8.4577 1.31477 8.57477 1.26098 8.68036C1.24515 8.71143 1.14997 8.9252 1.15384 8.9222C1.2296 8.86327 1.27967 8.72748 1.32373 8.64669C1.33397 8.62791 1.48187 8.3595 1.45537 8.45077C1.35415 8.79941 1.17061 9.14191 1.02832 9.47628C0.949033 9.66262 0.829077 9.82743 0.763526 10.0181C0.747233 10.0655 0.666302 10.2862 0.674749 10.26C0.864702 9.669 1.1536 9.11948 1.23496 8.49821C1.33855 7.70716 1.54082 6.94266 1.55027 6.13952C1.55278 5.92625 1.58379 5.72379 1.63292 5.52727" stroke="#DB6565" stroke-linecap="round"/>
</svg>
